G04 #@! TF.FileFunction,Copper,L1,Top,Signal*
%FSLAX46Y46*%
G04 Gerber Fmt 4.6, Leading zero omitted, Abs format (unit mm)*
G04 Created by KiCad (PCBNEW (2015-04-03 BZR 5572)-product) date Tuesday, April 07, 2015 'PMt' 09:07:44 PM*
%MOMM*%
G01*
G04 APERTURE LIST*
%ADD10C,0.100000*%
%ADD11C,0.150000*%
%ADD12R,1.300000X1.300000*%
%ADD13C,1.300000*%
%ADD14R,1.500000X1.250000*%
%ADD15C,1.501140*%
%ADD16R,1.597660X1.800860*%
%ADD17R,3.500120X1.800860*%
%ADD18R,2.540000X2.540000*%
%ADD19C,2.540000*%
%ADD20R,1.727200X1.727200*%
%ADD21O,1.727200X1.727200*%
%ADD22R,1.397000X1.397000*%
%ADD23C,1.397000*%
%ADD24R,1.500000X1.300000*%
%ADD25R,0.600000X1.500000*%
%ADD26C,1.778000*%
%ADD27R,1.778000X1.778000*%
%ADD28C,0.600000*%
%ADD29C,1.270000*%
%ADD30C,0.635000*%
%ADD31C,0.304800*%
%ADD32C,2.540000*%
G04 APERTURE END LIST*
D10*
D11*
X222250000Y-124460000D02*
X95250000Y-124460000D01*
X222250000Y-43180000D02*
X222250000Y-124460000D01*
X95250000Y-43180000D02*
X222250000Y-43180000D01*
X95250000Y-124460000D02*
X95250000Y-43180000D01*
X131445000Y-73660000D02*
X131445000Y-72644000D01*
X131953000Y-73152000D02*
X130937000Y-73152000D01*
D12*
X119380000Y-71120000D03*
D13*
X121880000Y-71120000D03*
D14*
X119400000Y-76200000D03*
X121900000Y-76200000D03*
X111780000Y-104140000D03*
X114280000Y-104140000D03*
X128290000Y-55880000D03*
X130790000Y-55880000D03*
X128290000Y-81280000D03*
X130790000Y-81280000D03*
X131465000Y-103505000D03*
X133965000Y-103505000D03*
D15*
X128270000Y-71120000D03*
X132080000Y-71120000D03*
D16*
X159870140Y-49530000D03*
X162709860Y-49530000D03*
X159870140Y-52070000D03*
X162709860Y-52070000D03*
X159870140Y-54610000D03*
X162709860Y-54610000D03*
X159870140Y-57150000D03*
X162709860Y-57150000D03*
X159870140Y-59690000D03*
X162709860Y-59690000D03*
X159870140Y-62230000D03*
X162709860Y-62230000D03*
X159870140Y-64770000D03*
X162709860Y-64770000D03*
X159870140Y-67310000D03*
X162709860Y-67310000D03*
X159870140Y-74930000D03*
X162709860Y-74930000D03*
X159870140Y-77470000D03*
X162709860Y-77470000D03*
X159870140Y-80010000D03*
X162709860Y-80010000D03*
X159870140Y-82550000D03*
X162709860Y-82550000D03*
X159870140Y-85090000D03*
X162709860Y-85090000D03*
X159870140Y-87630000D03*
X162709860Y-87630000D03*
X159870140Y-90170000D03*
X162709860Y-90170000D03*
X159870140Y-92710000D03*
X162709860Y-92710000D03*
X159870140Y-100330000D03*
X162709860Y-100330000D03*
X159870140Y-102870000D03*
X162709860Y-102870000D03*
X159870140Y-105410000D03*
X162709860Y-105410000D03*
X159870140Y-107950000D03*
X162709860Y-107950000D03*
X159870140Y-110490000D03*
X162709860Y-110490000D03*
X159870140Y-113030000D03*
X162709860Y-113030000D03*
X159870140Y-115570000D03*
X162709860Y-115570000D03*
X159870140Y-118110000D03*
X162709860Y-118110000D03*
X111610140Y-95250000D03*
X114449860Y-95250000D03*
D17*
X110530640Y-64770000D03*
X115529360Y-64770000D03*
D18*
X101600000Y-66040000D03*
D19*
X101600000Y-71120000D03*
D18*
X101600000Y-81280000D03*
D19*
X101600000Y-86360000D03*
X101600000Y-91440000D03*
D20*
X203200000Y-49530000D03*
D21*
X205740000Y-49530000D03*
X203200000Y-52070000D03*
X205740000Y-52070000D03*
X203200000Y-54610000D03*
X205740000Y-54610000D03*
X203200000Y-57150000D03*
X205740000Y-57150000D03*
X203200000Y-59690000D03*
X205740000Y-59690000D03*
X203200000Y-62230000D03*
X205740000Y-62230000D03*
X203200000Y-64770000D03*
X205740000Y-64770000D03*
X203200000Y-67310000D03*
X205740000Y-67310000D03*
D20*
X203200000Y-74930000D03*
D21*
X205740000Y-74930000D03*
X203200000Y-77470000D03*
X205740000Y-77470000D03*
X203200000Y-80010000D03*
X205740000Y-80010000D03*
X203200000Y-82550000D03*
X205740000Y-82550000D03*
X203200000Y-85090000D03*
X205740000Y-85090000D03*
X203200000Y-87630000D03*
X205740000Y-87630000D03*
X203200000Y-90170000D03*
X205740000Y-90170000D03*
X203200000Y-92710000D03*
X205740000Y-92710000D03*
D20*
X203200000Y-100330000D03*
D21*
X205740000Y-100330000D03*
X203200000Y-102870000D03*
X205740000Y-102870000D03*
X203200000Y-105410000D03*
X205740000Y-105410000D03*
X203200000Y-107950000D03*
X205740000Y-107950000D03*
X203200000Y-110490000D03*
X205740000Y-110490000D03*
X203200000Y-113030000D03*
X205740000Y-113030000D03*
X203200000Y-115570000D03*
X205740000Y-115570000D03*
X203200000Y-118110000D03*
X205740000Y-118110000D03*
D22*
X182880000Y-49530000D03*
D23*
X180340000Y-49530000D03*
X180340000Y-52070000D03*
D22*
X189230000Y-52070000D03*
D23*
X186690000Y-52070000D03*
X186690000Y-54610000D03*
D22*
X195580000Y-54610000D03*
D23*
X193040000Y-54610000D03*
X193040000Y-57150000D03*
D22*
X182880000Y-57150000D03*
D23*
X180340000Y-57150000D03*
X180340000Y-59690000D03*
D22*
X189230000Y-59690000D03*
D23*
X186690000Y-59690000D03*
X186690000Y-62230000D03*
D22*
X195580000Y-62230000D03*
D23*
X193040000Y-62230000D03*
X193040000Y-64770000D03*
D22*
X182880000Y-64770000D03*
D23*
X180340000Y-64770000D03*
X180340000Y-67310000D03*
D22*
X189230000Y-67310000D03*
D23*
X186690000Y-67310000D03*
X186690000Y-69850000D03*
D22*
X182880000Y-74930000D03*
D23*
X180340000Y-74930000D03*
X180340000Y-77470000D03*
D22*
X189230000Y-77470000D03*
D23*
X186690000Y-77470000D03*
X186690000Y-80010000D03*
D22*
X195580000Y-80010000D03*
D23*
X193040000Y-80010000D03*
X193040000Y-82550000D03*
D22*
X182880000Y-82550000D03*
D23*
X180340000Y-82550000D03*
X180340000Y-85090000D03*
D22*
X189230000Y-85090000D03*
D23*
X186690000Y-85090000D03*
X186690000Y-87630000D03*
D22*
X195580000Y-87630000D03*
D23*
X193040000Y-87630000D03*
X193040000Y-90170000D03*
D22*
X182880000Y-90170000D03*
D23*
X180340000Y-90170000D03*
X180340000Y-92710000D03*
D22*
X189230000Y-92710000D03*
D23*
X186690000Y-92710000D03*
X186690000Y-95250000D03*
D22*
X182880000Y-100330000D03*
D23*
X180340000Y-100330000D03*
X180340000Y-102870000D03*
D22*
X189230000Y-102870000D03*
D23*
X186690000Y-102870000D03*
X186690000Y-105410000D03*
D22*
X195580000Y-105410000D03*
D23*
X193040000Y-105410000D03*
X193040000Y-107950000D03*
D22*
X182880000Y-107950000D03*
D23*
X180340000Y-107950000D03*
X180340000Y-110490000D03*
D22*
X189230000Y-110490000D03*
D23*
X186690000Y-110490000D03*
X186690000Y-113030000D03*
D22*
X195580000Y-113030000D03*
D23*
X193040000Y-113030000D03*
X193040000Y-115570000D03*
D22*
X182880000Y-115570000D03*
D23*
X180340000Y-115570000D03*
X180340000Y-118110000D03*
D22*
X189230000Y-118110000D03*
D23*
X186690000Y-118110000D03*
X186690000Y-120650000D03*
D24*
X171530000Y-49530000D03*
X168830000Y-49530000D03*
X155020000Y-49530000D03*
X152320000Y-49530000D03*
X171530000Y-52070000D03*
X168830000Y-52070000D03*
X155020000Y-52070000D03*
X152320000Y-52070000D03*
X171530000Y-54610000D03*
X168830000Y-54610000D03*
X155020000Y-54610000D03*
X152320000Y-54610000D03*
X171530000Y-57150000D03*
X168830000Y-57150000D03*
X155020000Y-57150000D03*
X152320000Y-57150000D03*
X171530000Y-59690000D03*
X168830000Y-59690000D03*
X155020000Y-59690000D03*
X152320000Y-59690000D03*
X171530000Y-62230000D03*
X168830000Y-62230000D03*
X155020000Y-62230000D03*
X152320000Y-62230000D03*
X171530000Y-64770000D03*
X168830000Y-64770000D03*
X155020000Y-64770000D03*
X152320000Y-64770000D03*
X171530000Y-67310000D03*
X168830000Y-67310000D03*
X155020000Y-67310000D03*
X152320000Y-67310000D03*
X171530000Y-74930000D03*
X168830000Y-74930000D03*
X155020000Y-74930000D03*
X152320000Y-74930000D03*
X171530000Y-77470000D03*
X168830000Y-77470000D03*
X155020000Y-77470000D03*
X152320000Y-77470000D03*
X171530000Y-80010000D03*
X168830000Y-80010000D03*
X155020000Y-80010000D03*
X152320000Y-80010000D03*
X171530000Y-82550000D03*
X168830000Y-82550000D03*
X155020000Y-82550000D03*
X152320000Y-82550000D03*
X171530000Y-85090000D03*
X168830000Y-85090000D03*
X155020000Y-85090000D03*
X152320000Y-85090000D03*
X171530000Y-87630000D03*
X168830000Y-87630000D03*
X155020000Y-87630000D03*
X152320000Y-87630000D03*
X171530000Y-90170000D03*
X168830000Y-90170000D03*
X155020000Y-90170000D03*
X152320000Y-90170000D03*
X171530000Y-92710000D03*
X168830000Y-92710000D03*
X155020000Y-92710000D03*
X152320000Y-92710000D03*
X171530000Y-100330000D03*
X168830000Y-100330000D03*
X155020000Y-100330000D03*
X152320000Y-100330000D03*
X171530000Y-102870000D03*
X168830000Y-102870000D03*
X155020000Y-102870000D03*
X152320000Y-102870000D03*
X171530000Y-105410000D03*
X168830000Y-105410000D03*
X155020000Y-105410000D03*
X152320000Y-105410000D03*
X171530000Y-107950000D03*
X168830000Y-107950000D03*
X155020000Y-107950000D03*
X152320000Y-107950000D03*
X171530000Y-110490000D03*
X168830000Y-110490000D03*
X155020000Y-110490000D03*
X152320000Y-110490000D03*
X171530000Y-113030000D03*
X168830000Y-113030000D03*
X155020000Y-113030000D03*
X152320000Y-113030000D03*
X171530000Y-115570000D03*
X168830000Y-115570000D03*
X155020000Y-115570000D03*
X152320000Y-115570000D03*
X171530000Y-118110000D03*
X168830000Y-118110000D03*
X155020000Y-118110000D03*
X152320000Y-118110000D03*
X114380000Y-99060000D03*
X111680000Y-99060000D03*
X136445000Y-71120000D03*
X139145000Y-71120000D03*
X111840000Y-82550000D03*
X109140000Y-82550000D03*
X111840000Y-86360000D03*
X109140000Y-86360000D03*
X215980000Y-49530000D03*
X213280000Y-49530000D03*
X215980000Y-52070000D03*
X213280000Y-52070000D03*
X215980000Y-54610000D03*
X213280000Y-54610000D03*
X215980000Y-57150000D03*
X213280000Y-57150000D03*
X215980000Y-59690000D03*
X213280000Y-59690000D03*
X215980000Y-62230000D03*
X213280000Y-62230000D03*
X215980000Y-64770000D03*
X213280000Y-64770000D03*
X215980000Y-67310000D03*
X213280000Y-67310000D03*
X215980000Y-74930000D03*
X213280000Y-74930000D03*
X215980000Y-77470000D03*
X213280000Y-77470000D03*
X215980000Y-80010000D03*
X213280000Y-80010000D03*
X215980000Y-82550000D03*
X213280000Y-82550000D03*
X215980000Y-85090000D03*
X213280000Y-85090000D03*
X215980000Y-87630000D03*
X213280000Y-87630000D03*
X215980000Y-90170000D03*
X213280000Y-90170000D03*
X215980000Y-92710000D03*
X213280000Y-92710000D03*
X215980000Y-100330000D03*
X213280000Y-100330000D03*
X215980000Y-102870000D03*
X213280000Y-102870000D03*
X215980000Y-105410000D03*
X213280000Y-105410000D03*
X215980000Y-107950000D03*
X213280000Y-107950000D03*
X215980000Y-110490000D03*
X213280000Y-110490000D03*
X215980000Y-113030000D03*
X213280000Y-113030000D03*
X215980000Y-115570000D03*
X213280000Y-115570000D03*
X215980000Y-118110000D03*
X213280000Y-118110000D03*
D22*
X119380000Y-93980000D03*
D23*
X119380000Y-96520000D03*
X119380000Y-99060000D03*
X119380000Y-101600000D03*
X119380000Y-104140000D03*
X119380000Y-106680000D03*
X119380000Y-109220000D03*
X119380000Y-111760000D03*
X119380000Y-114300000D03*
X127000000Y-114300000D03*
X127000000Y-111760000D03*
X127000000Y-109220000D03*
X127000000Y-106680000D03*
X127000000Y-104140000D03*
X127000000Y-101600000D03*
X127000000Y-99060000D03*
X127000000Y-96520000D03*
X127000000Y-93980000D03*
D25*
X142875000Y-55720000D03*
X141605000Y-55720000D03*
X140335000Y-55720000D03*
X139065000Y-55720000D03*
X137795000Y-55720000D03*
X136525000Y-55720000D03*
X135255000Y-55720000D03*
X133985000Y-55720000D03*
X133985000Y-61120000D03*
X135255000Y-61120000D03*
X136525000Y-61120000D03*
X137795000Y-61120000D03*
X139065000Y-61120000D03*
X140335000Y-61120000D03*
X141605000Y-61120000D03*
X142875000Y-61120000D03*
X142875000Y-81120000D03*
X141605000Y-81120000D03*
X140335000Y-81120000D03*
X139065000Y-81120000D03*
X137795000Y-81120000D03*
X136525000Y-81120000D03*
X135255000Y-81120000D03*
X133985000Y-81120000D03*
X133985000Y-86520000D03*
X135255000Y-86520000D03*
X136525000Y-86520000D03*
X137795000Y-86520000D03*
X139065000Y-86520000D03*
X140335000Y-86520000D03*
X141605000Y-86520000D03*
X142875000Y-86520000D03*
X142875000Y-106520000D03*
X141605000Y-106520000D03*
X140335000Y-106520000D03*
X139065000Y-106520000D03*
X137795000Y-106520000D03*
X136525000Y-106520000D03*
X135255000Y-106520000D03*
X133985000Y-106520000D03*
X133985000Y-111920000D03*
X135255000Y-111920000D03*
X136525000Y-111920000D03*
X137795000Y-111920000D03*
X139065000Y-111920000D03*
X140335000Y-111920000D03*
X141605000Y-111920000D03*
X142875000Y-111920000D03*
D26*
X113030000Y-71120000D03*
D27*
X113030000Y-73660000D03*
D26*
X113030000Y-76200000D03*
D28*
X133985000Y-108585000D03*
X164465000Y-115570000D03*
X164465000Y-113030000D03*
X164465000Y-110490000D03*
X164465000Y-107950000D03*
X164465000Y-105410000D03*
X164465000Y-102870000D03*
X164465000Y-100330000D03*
X164465000Y-92710000D03*
X164465000Y-90170000D03*
X164465000Y-87630000D03*
X164465000Y-85090000D03*
X164465000Y-82550000D03*
X164465000Y-80010000D03*
X164465000Y-77470000D03*
X164465000Y-74930000D03*
X164465000Y-67310000D03*
X164465000Y-64770000D03*
X164465000Y-62230000D03*
X164465000Y-59690000D03*
X164465000Y-57150000D03*
X164465000Y-54610000D03*
X164465000Y-52070000D03*
X164465000Y-118110000D03*
X164465000Y-49530000D03*
X144145000Y-92710000D03*
X144145000Y-71120000D03*
X144145000Y-86360000D03*
X144145000Y-60960000D03*
X128270000Y-52070000D03*
X142875000Y-113665000D03*
X132080000Y-113030000D03*
X145415000Y-114300000D03*
X145415000Y-86360000D03*
X145415000Y-69215000D03*
X145415000Y-61595000D03*
X135255000Y-62865000D03*
X135255000Y-65405000D03*
X136525000Y-66675000D03*
X136525000Y-62865000D03*
X137795000Y-62865000D03*
X137795000Y-67310000D03*
X135255000Y-88265000D03*
X135255000Y-90805000D03*
X136525000Y-88265000D03*
X136525000Y-91440000D03*
X137795000Y-88265000D03*
X137795000Y-92075000D03*
X135255000Y-113665000D03*
X135255000Y-116205000D03*
X136525000Y-113665000D03*
X136525000Y-117475000D03*
X137795000Y-113665000D03*
X137795000Y-118110000D03*
X140335000Y-95250000D03*
X140335000Y-104140000D03*
X140335000Y-53975000D03*
X140335000Y-79375000D03*
X139065000Y-97790000D03*
X139065000Y-62865000D03*
X139065000Y-88265000D03*
X139065000Y-113665000D03*
X133985000Y-64135000D03*
X129540000Y-89535000D03*
X142875000Y-96520000D03*
X142875000Y-53975000D03*
X142875000Y-79375000D03*
X142875000Y-104140000D03*
X141605000Y-93980000D03*
X141605000Y-53975000D03*
X141605000Y-79375000D03*
X141605000Y-104140000D03*
D29*
X115529360Y-71079360D02*
X119339360Y-71079360D01*
X119339360Y-71079360D02*
X119380000Y-71120000D01*
X115529360Y-64770000D02*
X115529360Y-71079360D01*
X115488720Y-71120000D02*
X113030000Y-71120000D01*
X115529360Y-71079360D02*
X115488720Y-71120000D01*
D30*
X133985000Y-108585000D02*
X133985000Y-106520000D01*
X164465000Y-115570000D02*
X162709860Y-115570000D01*
X162709860Y-113030000D02*
X164465000Y-113030000D01*
X164465000Y-110490000D02*
X162709860Y-110490000D01*
X162709860Y-107950000D02*
X164465000Y-107950000D01*
X164465000Y-105410000D02*
X162709860Y-105410000D01*
X162709860Y-102870000D02*
X164465000Y-102870000D01*
X164465000Y-100330000D02*
X162709860Y-100330000D01*
X162709860Y-92710000D02*
X164465000Y-92710000D01*
X164465000Y-90170000D02*
X162709860Y-90170000D01*
X162709860Y-87630000D02*
X164465000Y-87630000D01*
X164465000Y-85090000D02*
X162709860Y-85090000D01*
X162709860Y-82550000D02*
X164465000Y-82550000D01*
X164465000Y-80010000D02*
X162709860Y-80010000D01*
X162709860Y-77470000D02*
X164465000Y-77470000D01*
X164465000Y-74930000D02*
X162709860Y-74930000D01*
X162709860Y-67310000D02*
X164465000Y-67310000D01*
X164465000Y-64770000D02*
X162709860Y-64770000D01*
X162709860Y-62230000D02*
X164465000Y-62230000D01*
X164465000Y-59690000D02*
X162709860Y-59690000D01*
X162709860Y-57150000D02*
X164465000Y-57150000D01*
X164465000Y-54610000D02*
X162709860Y-54610000D01*
X162709860Y-52070000D02*
X164465000Y-52070000D01*
X162709860Y-49530000D02*
X164465000Y-49530000D01*
X164465000Y-118110000D02*
X162709860Y-118110000D01*
X130790000Y-55880000D02*
X130790000Y-68600000D01*
X130790000Y-68600000D02*
X128270000Y-71120000D01*
X130790000Y-55880000D02*
X133825000Y-55880000D01*
X133825000Y-55880000D02*
X133985000Y-55720000D01*
X133985000Y-106520000D02*
X133985000Y-103525000D01*
X133985000Y-103525000D02*
X133965000Y-103505000D01*
X128270000Y-71120000D02*
X128270000Y-76835000D01*
X128270000Y-76835000D02*
X130790000Y-79355000D01*
X130790000Y-79355000D02*
X130790000Y-81280000D01*
X133985000Y-81120000D02*
X130950000Y-81120000D01*
X130950000Y-81120000D02*
X130790000Y-81280000D01*
X128270000Y-71120000D02*
X121880000Y-71120000D01*
X119380000Y-104140000D02*
X114280000Y-104140000D01*
X121900000Y-76200000D02*
X121900000Y-73660000D01*
X121900000Y-73660000D02*
X121920000Y-73660000D01*
D29*
X113030000Y-73660000D02*
X121920000Y-73660000D01*
X121880000Y-73620000D02*
X121880000Y-71120000D01*
X121920000Y-73660000D02*
X121880000Y-73620000D01*
X113030000Y-73660000D02*
X108585000Y-73660000D01*
X108585000Y-73660000D02*
X106045000Y-71120000D01*
X106045000Y-71120000D02*
X101600000Y-71120000D01*
D30*
X128290000Y-90190000D02*
X128290000Y-81280000D01*
X131410098Y-93310098D02*
X128290000Y-90190000D01*
X138464902Y-93310098D02*
X131410098Y-93310098D01*
X139065000Y-92710000D02*
X138464902Y-93310098D01*
X144145000Y-92710000D02*
X139065000Y-92710000D01*
X139145000Y-71120000D02*
X144145000Y-71120000D01*
X143985000Y-86520000D02*
X142875000Y-86520000D01*
X144145000Y-86360000D02*
X143985000Y-86520000D01*
X142875000Y-61120000D02*
X143985000Y-61120000D01*
X143985000Y-61120000D02*
X144145000Y-60960000D01*
X128270000Y-52070000D02*
X128290000Y-52090000D01*
X128290000Y-52090000D02*
X128290000Y-55880000D01*
X131465000Y-103505000D02*
X131465000Y-106065000D01*
X142875000Y-113665000D02*
X142875000Y-111920000D01*
X132080000Y-106680000D02*
X132080000Y-113030000D01*
X131465000Y-106065000D02*
X132080000Y-106680000D01*
X127000000Y-104140000D02*
X130830000Y-104140000D01*
X130830000Y-104140000D02*
X131465000Y-103505000D01*
X119400000Y-76200000D02*
X119400000Y-78125000D01*
X119400000Y-78125000D02*
X122555000Y-81280000D01*
X122555000Y-81280000D02*
X128290000Y-81280000D01*
X127000000Y-104140000D02*
X124460000Y-104140000D01*
X113050000Y-105410000D02*
X111780000Y-104140000D01*
X123190000Y-105410000D02*
X113050000Y-105410000D01*
X124460000Y-104140000D02*
X123190000Y-105410000D01*
X111840000Y-86360000D02*
X111840000Y-82550000D01*
X111610140Y-95250000D02*
X111610140Y-86589860D01*
X111610140Y-86589860D02*
X111840000Y-86360000D01*
X111780000Y-104140000D02*
X111760000Y-104140000D01*
X111760000Y-104140000D02*
X109855000Y-102235000D01*
X109855000Y-102235000D02*
X109855000Y-97005140D01*
X109855000Y-97005140D02*
X111610140Y-95250000D01*
X119400000Y-76200000D02*
X113030000Y-76200000D01*
D31*
X141605000Y-114300000D02*
X141605000Y-111920000D01*
X142240000Y-114935000D02*
X141605000Y-114300000D01*
X144780000Y-114935000D02*
X142240000Y-114935000D01*
X145415000Y-114300000D02*
X144780000Y-114935000D01*
X141605000Y-87630000D02*
X141605000Y-86520000D01*
X142240000Y-88265000D02*
X141605000Y-87630000D01*
X144780000Y-88265000D02*
X142240000Y-88265000D01*
X145415000Y-87630000D02*
X144780000Y-88265000D01*
X145415000Y-86360000D02*
X145415000Y-87630000D01*
X141605000Y-61120000D02*
X141605000Y-62230000D01*
X136445000Y-69930000D02*
X136445000Y-71120000D01*
X137160000Y-69215000D02*
X136445000Y-69930000D01*
X145415000Y-69215000D02*
X137160000Y-69215000D01*
X144145000Y-62865000D02*
X145415000Y-61595000D01*
X142240000Y-62865000D02*
X144145000Y-62865000D01*
X141605000Y-62230000D02*
X142240000Y-62865000D01*
X132080000Y-71120000D02*
X136445000Y-71120000D01*
X159870140Y-49530000D02*
X155020000Y-49530000D01*
X159870140Y-52070000D02*
X155020000Y-52070000D01*
X159870140Y-54610000D02*
X155020000Y-54610000D01*
X159870140Y-57150000D02*
X155020000Y-57150000D01*
X159870140Y-59690000D02*
X155020000Y-59690000D01*
X159870140Y-62230000D02*
X155020000Y-62230000D01*
X159870140Y-64770000D02*
X155020000Y-64770000D01*
X159870140Y-67310000D02*
X155020000Y-67310000D01*
X155020000Y-74930000D02*
X159870140Y-74930000D01*
X155020000Y-77470000D02*
X159870140Y-77470000D01*
X155020000Y-80010000D02*
X159870140Y-80010000D01*
X155020000Y-82550000D02*
X159870140Y-82550000D01*
X155020000Y-85090000D02*
X159870140Y-85090000D01*
X155020000Y-87630000D02*
X159870140Y-87630000D01*
X155020000Y-90170000D02*
X159870140Y-90170000D01*
X155020000Y-92710000D02*
X159870140Y-92710000D01*
X155020000Y-100330000D02*
X159870140Y-100330000D01*
X155020000Y-102870000D02*
X159870140Y-102870000D01*
X155020000Y-105410000D02*
X159870140Y-105410000D01*
X155020000Y-107950000D02*
X159870140Y-107950000D01*
X155020000Y-110490000D02*
X159870140Y-110490000D01*
X155020000Y-113030000D02*
X159870140Y-113030000D01*
X155020000Y-115570000D02*
X159870140Y-115570000D01*
X155020000Y-118110000D02*
X159870140Y-118110000D01*
X114449860Y-95250000D02*
X114449860Y-96370140D01*
X111680000Y-97870000D02*
X111680000Y-99060000D01*
X112395000Y-97155000D02*
X111680000Y-97870000D01*
X113665000Y-97155000D02*
X112395000Y-97155000D01*
X114449860Y-96370140D02*
X113665000Y-97155000D01*
D32*
X101600000Y-66040000D02*
X101600000Y-64135000D01*
X218440000Y-47625000D02*
X218440000Y-49530000D01*
X217170000Y-46355000D02*
X218440000Y-47625000D01*
X119380000Y-46355000D02*
X217170000Y-46355000D01*
X101600000Y-64135000D02*
X119380000Y-46355000D01*
D29*
X101600000Y-66040000D02*
X105410000Y-66040000D01*
X106680000Y-64770000D02*
X110530640Y-64770000D01*
X105410000Y-66040000D02*
X106680000Y-64770000D01*
D30*
X218440000Y-118110000D02*
X215980000Y-118110000D01*
D29*
X218440000Y-115570000D02*
X218440000Y-118110000D01*
X218440000Y-113030000D02*
X218440000Y-115570000D01*
X218440000Y-110490000D02*
X218440000Y-113030000D01*
X218440000Y-107950000D02*
X218440000Y-110490000D01*
X218440000Y-105410000D02*
X218440000Y-107950000D01*
X218440000Y-102870000D02*
X218440000Y-105410000D01*
X218440000Y-100330000D02*
X218440000Y-102870000D01*
D32*
X218440000Y-92710000D02*
X218440000Y-100330000D01*
X218440000Y-90170000D02*
X218440000Y-92710000D01*
X218440000Y-87630000D02*
X218440000Y-90170000D01*
X218440000Y-85090000D02*
X218440000Y-87630000D01*
X218440000Y-82550000D02*
X218440000Y-85090000D01*
X218440000Y-80010000D02*
X218440000Y-82550000D01*
X218440000Y-77470000D02*
X218440000Y-80010000D01*
X218440000Y-74930000D02*
X218440000Y-77470000D01*
X218440000Y-67310000D02*
X218440000Y-74930000D01*
X218440000Y-64770000D02*
X218440000Y-67310000D01*
X218440000Y-62230000D02*
X218440000Y-64770000D01*
X218440000Y-59690000D02*
X218440000Y-62230000D01*
X218440000Y-57150000D02*
X218440000Y-59690000D01*
X218440000Y-54610000D02*
X218440000Y-57150000D01*
X218440000Y-52070000D02*
X218440000Y-54610000D01*
X218440000Y-49530000D02*
X218440000Y-52070000D01*
D30*
X215980000Y-49530000D02*
X218440000Y-49530000D01*
X215980000Y-52070000D02*
X218440000Y-52070000D01*
X215980000Y-54610000D02*
X218440000Y-54610000D01*
X215980000Y-57150000D02*
X218440000Y-57150000D01*
X215980000Y-59690000D02*
X218440000Y-59690000D01*
X215980000Y-62230000D02*
X218440000Y-62230000D01*
X215980000Y-64770000D02*
X218440000Y-64770000D01*
X215980000Y-67310000D02*
X218440000Y-67310000D01*
X215980000Y-74930000D02*
X218440000Y-74930000D01*
X215980000Y-77470000D02*
X218440000Y-77470000D01*
X215980000Y-80010000D02*
X218440000Y-80010000D01*
X215980000Y-82550000D02*
X218440000Y-82550000D01*
X215980000Y-85090000D02*
X218440000Y-85090000D01*
X215980000Y-87630000D02*
X218440000Y-87630000D01*
X215980000Y-90170000D02*
X218440000Y-90170000D01*
X215980000Y-92710000D02*
X218440000Y-92710000D01*
X215980000Y-100330000D02*
X218440000Y-100330000D01*
X215980000Y-102870000D02*
X218440000Y-102870000D01*
X215980000Y-105410000D02*
X218440000Y-105410000D01*
X215980000Y-107950000D02*
X218440000Y-107950000D01*
X215980000Y-110490000D02*
X218440000Y-110490000D01*
X215980000Y-113030000D02*
X218440000Y-113030000D01*
X215980000Y-115570000D02*
X218440000Y-115570000D01*
D31*
X109140000Y-82550000D02*
X106045000Y-82550000D01*
X104775000Y-81280000D02*
X101600000Y-81280000D01*
X106045000Y-82550000D02*
X104775000Y-81280000D01*
X127000000Y-114300000D02*
X124460000Y-114300000D01*
X109140000Y-109775000D02*
X109140000Y-86360000D01*
X115570000Y-116205000D02*
X109140000Y-109775000D01*
X122555000Y-116205000D02*
X115570000Y-116205000D01*
X124460000Y-114300000D02*
X122555000Y-116205000D01*
X109140000Y-86360000D02*
X101600000Y-86360000D01*
D30*
X182880000Y-49530000D02*
X203200000Y-49530000D01*
X213280000Y-49530000D02*
X205740000Y-49530000D01*
X189230000Y-52070000D02*
X203200000Y-52070000D01*
X213280000Y-52070000D02*
X205740000Y-52070000D01*
X195580000Y-54610000D02*
X203200000Y-54610000D01*
X213280000Y-54610000D02*
X205740000Y-54610000D01*
X182880000Y-57150000D02*
X190500000Y-57150000D01*
X196215000Y-57150000D02*
X203200000Y-57150000D01*
X194310000Y-59055000D02*
X196215000Y-57150000D01*
X192405000Y-59055000D02*
X194310000Y-59055000D01*
X190500000Y-57150000D02*
X192405000Y-59055000D01*
X213280000Y-57150000D02*
X205740000Y-57150000D01*
X189230000Y-59690000D02*
X190500000Y-59690000D01*
X196215000Y-59690000D02*
X203200000Y-59690000D01*
X195580000Y-60325000D02*
X196215000Y-59690000D01*
X191135000Y-60325000D02*
X195580000Y-60325000D01*
X190500000Y-59690000D02*
X191135000Y-60325000D01*
X213280000Y-59690000D02*
X205740000Y-59690000D01*
X195580000Y-62230000D02*
X203200000Y-62230000D01*
X213280000Y-62230000D02*
X205740000Y-62230000D01*
X182880000Y-64770000D02*
X190500000Y-64770000D01*
X196215000Y-64770000D02*
X203200000Y-64770000D01*
X194310000Y-66675000D02*
X196215000Y-64770000D01*
X192405000Y-66675000D02*
X194310000Y-66675000D01*
X190500000Y-64770000D02*
X192405000Y-66675000D01*
X213280000Y-64770000D02*
X205740000Y-64770000D01*
X189230000Y-67310000D02*
X190500000Y-67310000D01*
X196215000Y-67310000D02*
X203200000Y-67310000D01*
X195580000Y-67945000D02*
X196215000Y-67310000D01*
X191135000Y-67945000D02*
X195580000Y-67945000D01*
X190500000Y-67310000D02*
X191135000Y-67945000D01*
X213280000Y-67310000D02*
X205740000Y-67310000D01*
X203200000Y-74930000D02*
X182880000Y-74930000D01*
X213280000Y-74930000D02*
X205740000Y-74930000D01*
X189230000Y-77470000D02*
X203200000Y-77470000D01*
X213280000Y-77470000D02*
X205740000Y-77470000D01*
X203200000Y-80010000D02*
X195580000Y-80010000D01*
X213280000Y-80010000D02*
X205740000Y-80010000D01*
X182880000Y-82550000D02*
X190500000Y-82550000D01*
X196215000Y-82550000D02*
X203200000Y-82550000D01*
X194310000Y-84455000D02*
X196215000Y-82550000D01*
X192405000Y-84455000D02*
X194310000Y-84455000D01*
X190500000Y-82550000D02*
X192405000Y-84455000D01*
X213280000Y-82550000D02*
X205740000Y-82550000D01*
X189230000Y-85090000D02*
X190500000Y-85090000D01*
X196215000Y-85090000D02*
X203200000Y-85090000D01*
X195580000Y-85725000D02*
X196215000Y-85090000D01*
X191135000Y-85725000D02*
X195580000Y-85725000D01*
X190500000Y-85090000D02*
X191135000Y-85725000D01*
X213280000Y-85090000D02*
X205740000Y-85090000D01*
X195580000Y-87630000D02*
X203200000Y-87630000D01*
X213280000Y-87630000D02*
X205740000Y-87630000D01*
X182880000Y-90170000D02*
X190500000Y-90170000D01*
X196215000Y-90170000D02*
X203200000Y-90170000D01*
X194310000Y-92075000D02*
X196215000Y-90170000D01*
X192405000Y-92075000D02*
X194310000Y-92075000D01*
X191770000Y-91440000D02*
X192405000Y-92075000D01*
X190500000Y-90170000D02*
X191770000Y-91440000D01*
X213280000Y-90170000D02*
X205740000Y-90170000D01*
X189230000Y-92710000D02*
X190500000Y-92710000D01*
X196215000Y-92710000D02*
X203200000Y-92710000D01*
X195580000Y-93345000D02*
X196215000Y-92710000D01*
X191135000Y-93345000D02*
X195580000Y-93345000D01*
X190500000Y-92710000D02*
X191135000Y-93345000D01*
X213280000Y-92710000D02*
X205740000Y-92710000D01*
X203200000Y-100330000D02*
X182880000Y-100330000D01*
X213280000Y-100330000D02*
X205740000Y-100330000D01*
X203200000Y-102870000D02*
X189230000Y-102870000D01*
X213280000Y-102870000D02*
X205740000Y-102870000D01*
X203200000Y-105410000D02*
X195580000Y-105410000D01*
X213280000Y-105410000D02*
X205740000Y-105410000D01*
X196215000Y-109855000D02*
X192405000Y-109855000D01*
X182880000Y-107950000D02*
X190500000Y-107950000D01*
X190500000Y-107950000D02*
X192405000Y-109855000D01*
X198120000Y-107950000D02*
X203200000Y-107950000D01*
X196215000Y-109855000D02*
X198120000Y-107950000D01*
X213280000Y-107950000D02*
X205740000Y-107950000D01*
X197485000Y-111125000D02*
X191135000Y-111125000D01*
X189230000Y-110490000D02*
X190500000Y-110490000D01*
X190500000Y-110490000D02*
X191135000Y-111125000D01*
X198120000Y-110490000D02*
X203200000Y-110490000D01*
X197485000Y-111125000D02*
X198120000Y-110490000D01*
X213280000Y-110490000D02*
X205740000Y-110490000D01*
X203200000Y-113030000D02*
X195580000Y-113030000D01*
X213280000Y-113030000D02*
X205740000Y-113030000D01*
X196215000Y-117475000D02*
X192405000Y-117475000D01*
X182880000Y-115570000D02*
X190500000Y-115570000D01*
X190500000Y-115570000D02*
X192405000Y-117475000D01*
X198120000Y-115570000D02*
X203200000Y-115570000D01*
X196215000Y-117475000D02*
X198120000Y-115570000D01*
X213280000Y-115570000D02*
X205740000Y-115570000D01*
X197485000Y-118745000D02*
X191135000Y-118745000D01*
X189230000Y-118110000D02*
X190500000Y-118110000D01*
X190500000Y-118110000D02*
X191135000Y-118745000D01*
X198120000Y-118110000D02*
X203200000Y-118110000D01*
X197485000Y-118745000D02*
X198120000Y-118110000D01*
X213280000Y-118110000D02*
X205740000Y-118110000D01*
D31*
X171530000Y-49530000D02*
X180340000Y-49530000D01*
X186690000Y-52070000D02*
X182880000Y-52070000D01*
X175260000Y-52070000D02*
X171530000Y-52070000D01*
X176530000Y-53340000D02*
X175260000Y-52070000D01*
X181610000Y-53340000D02*
X176530000Y-53340000D01*
X182880000Y-52070000D02*
X181610000Y-53340000D01*
X189230000Y-54610000D02*
X187960000Y-55880000D01*
X187960000Y-55880000D02*
X185420000Y-55880000D01*
X185420000Y-55880000D02*
X184150000Y-54610000D01*
X184150000Y-54610000D02*
X171530000Y-54610000D01*
X193040000Y-54610000D02*
X189230000Y-54610000D01*
X180340000Y-57150000D02*
X171530000Y-57150000D01*
X186690000Y-59690000D02*
X183515000Y-59690000D01*
X175260000Y-59690000D02*
X171530000Y-59690000D01*
X176530000Y-60960000D02*
X175260000Y-59690000D01*
X182245000Y-60960000D02*
X176530000Y-60960000D01*
X183515000Y-59690000D02*
X182245000Y-60960000D01*
X193040000Y-62230000D02*
X189865000Y-62230000D01*
X183515000Y-62230000D02*
X171530000Y-62230000D01*
X184785000Y-63500000D02*
X183515000Y-62230000D01*
X188595000Y-63500000D02*
X184785000Y-63500000D01*
X189865000Y-62230000D02*
X188595000Y-63500000D01*
X180340000Y-64770000D02*
X171530000Y-64770000D01*
X186690000Y-67310000D02*
X183515000Y-67310000D01*
X176530000Y-67310000D02*
X171530000Y-67310000D01*
X178435000Y-69215000D02*
X176530000Y-67310000D01*
X181610000Y-69215000D02*
X178435000Y-69215000D01*
X183515000Y-67310000D02*
X181610000Y-69215000D01*
X180340000Y-74930000D02*
X171530000Y-74930000D01*
X184150000Y-77470000D02*
X182880000Y-78740000D01*
X182880000Y-78740000D02*
X179070000Y-78740000D01*
X179070000Y-78740000D02*
X177800000Y-77470000D01*
X177800000Y-77470000D02*
X171530000Y-77470000D01*
X186690000Y-77470000D02*
X184150000Y-77470000D01*
X189230000Y-80010000D02*
X187960000Y-81280000D01*
X187960000Y-81280000D02*
X185420000Y-81280000D01*
X185420000Y-81280000D02*
X184150000Y-80010000D01*
X184150000Y-80010000D02*
X171530000Y-80010000D01*
X193040000Y-80010000D02*
X189230000Y-80010000D01*
X180340000Y-82550000D02*
X171530000Y-82550000D01*
X183515000Y-85090000D02*
X182245000Y-86360000D01*
X182245000Y-86360000D02*
X179070000Y-86360000D01*
X179070000Y-86360000D02*
X177800000Y-85090000D01*
X177800000Y-85090000D02*
X171530000Y-85090000D01*
X186690000Y-85090000D02*
X183515000Y-85090000D01*
X189230000Y-87630000D02*
X187960000Y-88900000D01*
X187960000Y-88900000D02*
X185420000Y-88900000D01*
X185420000Y-88900000D02*
X184150000Y-87630000D01*
X184150000Y-87630000D02*
X171530000Y-87630000D01*
X193040000Y-87630000D02*
X189230000Y-87630000D01*
X180340000Y-90170000D02*
X171530000Y-90170000D01*
X182880000Y-92710000D02*
X181610000Y-93980000D01*
X181610000Y-93980000D02*
X179070000Y-93980000D01*
X179070000Y-93980000D02*
X177800000Y-92710000D01*
X177800000Y-92710000D02*
X171530000Y-92710000D01*
X186690000Y-92710000D02*
X182880000Y-92710000D01*
X180340000Y-100330000D02*
X171530000Y-100330000D01*
X183515000Y-102870000D02*
X182245000Y-104140000D01*
X182245000Y-104140000D02*
X178435000Y-104140000D01*
X178435000Y-104140000D02*
X177165000Y-102870000D01*
X177165000Y-102870000D02*
X171530000Y-102870000D01*
X186690000Y-102870000D02*
X183515000Y-102870000D01*
X189230000Y-105410000D02*
X187960000Y-106680000D01*
X187960000Y-106680000D02*
X185420000Y-106680000D01*
X185420000Y-106680000D02*
X184150000Y-105410000D01*
X184150000Y-105410000D02*
X171530000Y-105410000D01*
X193040000Y-105410000D02*
X189230000Y-105410000D01*
X180340000Y-107950000D02*
X171530000Y-107950000D01*
X183515000Y-110490000D02*
X182245000Y-111760000D01*
X182245000Y-111760000D02*
X178435000Y-111760000D01*
X178435000Y-111760000D02*
X177165000Y-110490000D01*
X177165000Y-110490000D02*
X171530000Y-110490000D01*
X186690000Y-110490000D02*
X183515000Y-110490000D01*
X190500000Y-113030000D02*
X189230000Y-114300000D01*
X189230000Y-114300000D02*
X185420000Y-114300000D01*
X185420000Y-114300000D02*
X184150000Y-113030000D01*
X184150000Y-113030000D02*
X171530000Y-113030000D01*
X193040000Y-113030000D02*
X190500000Y-113030000D01*
X180340000Y-115570000D02*
X171530000Y-115570000D01*
X184150000Y-118110000D02*
X182880000Y-119380000D01*
X182880000Y-119380000D02*
X179070000Y-119380000D01*
X179070000Y-119380000D02*
X177800000Y-118110000D01*
X177800000Y-118110000D02*
X171530000Y-118110000D01*
X186690000Y-118110000D02*
X184150000Y-118110000D01*
X152320000Y-49530000D02*
X150495000Y-49530000D01*
X139065000Y-56515000D02*
X139065000Y-55720000D01*
X139700000Y-57150000D02*
X139065000Y-56515000D01*
X144780000Y-57150000D02*
X139700000Y-57150000D01*
X145415000Y-56515000D02*
X144780000Y-57150000D01*
X145415000Y-54610000D02*
X145415000Y-56515000D01*
X150495000Y-49530000D02*
X145415000Y-54610000D01*
X152320000Y-48975000D02*
X152320000Y-49530000D01*
X166370000Y-49530000D02*
X165100000Y-48260000D01*
X165100000Y-48260000D02*
X153035000Y-48260000D01*
X153035000Y-48260000D02*
X152320000Y-48975000D01*
X168830000Y-49530000D02*
X166370000Y-49530000D01*
X152320000Y-52070000D02*
X149860000Y-52070000D01*
X137795000Y-57150000D02*
X137795000Y-55720000D01*
X138430000Y-57785000D02*
X137795000Y-57150000D01*
X146050000Y-57785000D02*
X138430000Y-57785000D01*
X146685000Y-57150000D02*
X146050000Y-57785000D01*
X146685000Y-55245000D02*
X146685000Y-57150000D01*
X149860000Y-52070000D02*
X146685000Y-55245000D01*
X152320000Y-51515000D02*
X152320000Y-52070000D01*
X166370000Y-52070000D02*
X165100000Y-50800000D01*
X165100000Y-50800000D02*
X153035000Y-50800000D01*
X153035000Y-50800000D02*
X152320000Y-51515000D01*
X168830000Y-52070000D02*
X166370000Y-52070000D01*
X152320000Y-54610000D02*
X149860000Y-54610000D01*
X136525000Y-57785000D02*
X136525000Y-55720000D01*
X137160000Y-58420000D02*
X136525000Y-57785000D01*
X147320000Y-58420000D02*
X137160000Y-58420000D01*
X147955000Y-57785000D02*
X147320000Y-58420000D01*
X147955000Y-56515000D02*
X147955000Y-57785000D01*
X149860000Y-54610000D02*
X147955000Y-56515000D01*
X152320000Y-54055000D02*
X152320000Y-54610000D01*
X166370000Y-54610000D02*
X165100000Y-53340000D01*
X165100000Y-53340000D02*
X153035000Y-53340000D01*
X153035000Y-53340000D02*
X152320000Y-54055000D01*
X168830000Y-54610000D02*
X166370000Y-54610000D01*
X152320000Y-57150000D02*
X149860000Y-57150000D01*
X135255000Y-58420000D02*
X135255000Y-55720000D01*
X135890000Y-59055000D02*
X135255000Y-58420000D01*
X147955000Y-59055000D02*
X135890000Y-59055000D01*
X149860000Y-57150000D02*
X147955000Y-59055000D01*
X152320000Y-56595000D02*
X152320000Y-57150000D01*
X166370000Y-57150000D02*
X165100000Y-55880000D01*
X165100000Y-55880000D02*
X153035000Y-55880000D01*
X153035000Y-55880000D02*
X152320000Y-56595000D01*
X168830000Y-57150000D02*
X166370000Y-57150000D01*
X152320000Y-59690000D02*
X134620000Y-59690000D01*
X133985000Y-60325000D02*
X133985000Y-61120000D01*
X134620000Y-59690000D02*
X133985000Y-60325000D01*
X152320000Y-59135000D02*
X152320000Y-59690000D01*
X166370000Y-59690000D02*
X165100000Y-58420000D01*
X165100000Y-58420000D02*
X153035000Y-58420000D01*
X153035000Y-58420000D02*
X152320000Y-59135000D01*
X168830000Y-59690000D02*
X166370000Y-59690000D01*
X139700000Y-66040000D02*
X139065000Y-66040000D01*
X135890000Y-65405000D02*
X135255000Y-65405000D01*
X138430000Y-65405000D02*
X135890000Y-65405000D01*
X139065000Y-66040000D02*
X138430000Y-65405000D01*
X147320000Y-66040000D02*
X151130000Y-62230000D01*
X139700000Y-66040000D02*
X147320000Y-66040000D01*
X152320000Y-62230000D02*
X151130000Y-62230000D01*
X135255000Y-62865000D02*
X135255000Y-61120000D01*
X152320000Y-61675000D02*
X152320000Y-62230000D01*
X166370000Y-62230000D02*
X165100000Y-60960000D01*
X165100000Y-60960000D02*
X153035000Y-60960000D01*
X153035000Y-60960000D02*
X152320000Y-61675000D01*
X168830000Y-62230000D02*
X166370000Y-62230000D01*
X139065000Y-66675000D02*
X138430000Y-66675000D01*
X137160000Y-66040000D02*
X136525000Y-66675000D01*
X137795000Y-66040000D02*
X137160000Y-66040000D01*
X138430000Y-66675000D02*
X137795000Y-66040000D01*
X148590000Y-66675000D02*
X150495000Y-64770000D01*
X139065000Y-66675000D02*
X148590000Y-66675000D01*
X152320000Y-64770000D02*
X150495000Y-64770000D01*
X136525000Y-62865000D02*
X136525000Y-61120000D01*
X152320000Y-64215000D02*
X152320000Y-64770000D01*
X166370000Y-64770000D02*
X165100000Y-63500000D01*
X165100000Y-63500000D02*
X153035000Y-63500000D01*
X153035000Y-63500000D02*
X152320000Y-64215000D01*
X168830000Y-64770000D02*
X166370000Y-64770000D01*
X137795000Y-67310000D02*
X138430000Y-67310000D01*
X138430000Y-67310000D02*
X149225000Y-67310000D01*
X152320000Y-67310000D02*
X149225000Y-67310000D01*
X137795000Y-62865000D02*
X137795000Y-61120000D01*
X152320000Y-66755000D02*
X152320000Y-67310000D01*
X166370000Y-67310000D02*
X165100000Y-66040000D01*
X165100000Y-66040000D02*
X153035000Y-66040000D01*
X153035000Y-66040000D02*
X152320000Y-66755000D01*
X168830000Y-67310000D02*
X166370000Y-67310000D01*
X152320000Y-74930000D02*
X148590000Y-74930000D01*
X139065000Y-81915000D02*
X139065000Y-81120000D01*
X139700000Y-82550000D02*
X139065000Y-81915000D01*
X144780000Y-82550000D02*
X139700000Y-82550000D01*
X145415000Y-81915000D02*
X144780000Y-82550000D01*
X145415000Y-78105000D02*
X145415000Y-81915000D01*
X148590000Y-74930000D02*
X145415000Y-78105000D01*
X152320000Y-74375000D02*
X152320000Y-74930000D01*
X166370000Y-74930000D02*
X165100000Y-73660000D01*
X165100000Y-73660000D02*
X153035000Y-73660000D01*
X153035000Y-73660000D02*
X152320000Y-74375000D01*
X168830000Y-74930000D02*
X166370000Y-74930000D01*
X152320000Y-77470000D02*
X147955000Y-77470000D01*
X137795000Y-82550000D02*
X137795000Y-81120000D01*
X138430000Y-83185000D02*
X137795000Y-82550000D01*
X145415000Y-83185000D02*
X138430000Y-83185000D01*
X146050000Y-82550000D02*
X145415000Y-83185000D01*
X146050000Y-79375000D02*
X146050000Y-82550000D01*
X147955000Y-77470000D02*
X146050000Y-79375000D01*
X152320000Y-76915000D02*
X152320000Y-77470000D01*
X166370000Y-77470000D02*
X165100000Y-76200000D01*
X165100000Y-76200000D02*
X153035000Y-76200000D01*
X153035000Y-76200000D02*
X152320000Y-76915000D01*
X168830000Y-77470000D02*
X166370000Y-77470000D01*
X152320000Y-80010000D02*
X147320000Y-80010000D01*
X136525000Y-83185000D02*
X136525000Y-81120000D01*
X137160000Y-83820000D02*
X136525000Y-83185000D01*
X146050000Y-83820000D02*
X137160000Y-83820000D01*
X146685000Y-83185000D02*
X146050000Y-83820000D01*
X146685000Y-80645000D02*
X146685000Y-83185000D01*
X147320000Y-80010000D02*
X146685000Y-80645000D01*
X152320000Y-79455000D02*
X152320000Y-80010000D01*
X166370000Y-80010000D02*
X165100000Y-78740000D01*
X165100000Y-78740000D02*
X153035000Y-78740000D01*
X153035000Y-78740000D02*
X152320000Y-79455000D01*
X168830000Y-80010000D02*
X166370000Y-80010000D01*
X152320000Y-82550000D02*
X148590000Y-82550000D01*
X135255000Y-83820000D02*
X135255000Y-81120000D01*
X135890000Y-84455000D02*
X135255000Y-83820000D01*
X146685000Y-84455000D02*
X135890000Y-84455000D01*
X148590000Y-82550000D02*
X146685000Y-84455000D01*
X152320000Y-81995000D02*
X152320000Y-82550000D01*
X166370000Y-82550000D02*
X165100000Y-81280000D01*
X165100000Y-81280000D02*
X153035000Y-81280000D01*
X153035000Y-81280000D02*
X152320000Y-81995000D01*
X168830000Y-82550000D02*
X166370000Y-82550000D01*
X152320000Y-85090000D02*
X134620000Y-85090000D01*
X133985000Y-85725000D02*
X133985000Y-86520000D01*
X134620000Y-85090000D02*
X133985000Y-85725000D01*
X152320000Y-84535000D02*
X152320000Y-85090000D01*
X166370000Y-85090000D02*
X165100000Y-83820000D01*
X165100000Y-83820000D02*
X153035000Y-83820000D01*
X153035000Y-83820000D02*
X152320000Y-84535000D01*
X168830000Y-85090000D02*
X166370000Y-85090000D01*
X139065000Y-90170000D02*
X147320000Y-90170000D01*
X135890000Y-90170000D02*
X135255000Y-90805000D01*
X147320000Y-90170000D02*
X149860000Y-87630000D01*
X152320000Y-87630000D02*
X149860000Y-87630000D01*
X135255000Y-88265000D02*
X135255000Y-86520000D01*
X139065000Y-90170000D02*
X135890000Y-90170000D01*
X152320000Y-87075000D02*
X152320000Y-87630000D01*
X166370000Y-87630000D02*
X165100000Y-86360000D01*
X165100000Y-86360000D02*
X153035000Y-86360000D01*
X153035000Y-86360000D02*
X152320000Y-87075000D01*
X168830000Y-87630000D02*
X166370000Y-87630000D01*
X138430000Y-90805000D02*
X148590000Y-90805000D01*
X148590000Y-90805000D02*
X149225000Y-90170000D01*
X152320000Y-90170000D02*
X149225000Y-90170000D01*
X136525000Y-88265000D02*
X136525000Y-86520000D01*
X137160000Y-90805000D02*
X136525000Y-91440000D01*
X138430000Y-90805000D02*
X137160000Y-90805000D01*
X152320000Y-89615000D02*
X152320000Y-90170000D01*
X166370000Y-90170000D02*
X165100000Y-88900000D01*
X165100000Y-88900000D02*
X153035000Y-88900000D01*
X153035000Y-88900000D02*
X152320000Y-89615000D01*
X168830000Y-90170000D02*
X166370000Y-90170000D01*
X137795000Y-92075000D02*
X138430000Y-91440000D01*
X148590000Y-91440000D02*
X149225000Y-92075000D01*
X138430000Y-91440000D02*
X148590000Y-91440000D01*
X152320000Y-92710000D02*
X149860000Y-92710000D01*
X137795000Y-88265000D02*
X137795000Y-86520000D01*
X149860000Y-92710000D02*
X149225000Y-92075000D01*
X152320000Y-92155000D02*
X152320000Y-92710000D01*
X166370000Y-92710000D02*
X165100000Y-91440000D01*
X165100000Y-91440000D02*
X153035000Y-91440000D01*
X153035000Y-91440000D02*
X152320000Y-92155000D01*
X168830000Y-92710000D02*
X166370000Y-92710000D01*
X152320000Y-100330000D02*
X150495000Y-100330000D01*
X139065000Y-107315000D02*
X139065000Y-106520000D01*
X139700000Y-107950000D02*
X139065000Y-107315000D01*
X144145000Y-107950000D02*
X139700000Y-107950000D01*
X144780000Y-107315000D02*
X144145000Y-107950000D01*
X144780000Y-106045000D02*
X144780000Y-107315000D01*
X150495000Y-100330000D02*
X144780000Y-106045000D01*
X152320000Y-99775000D02*
X152320000Y-100330000D01*
X166370000Y-100330000D02*
X165100000Y-99060000D01*
X165100000Y-99060000D02*
X153035000Y-99060000D01*
X153035000Y-99060000D02*
X152320000Y-99775000D01*
X168830000Y-100330000D02*
X166370000Y-100330000D01*
X152320000Y-102870000D02*
X149225000Y-102870000D01*
X137795000Y-107950000D02*
X137795000Y-106520000D01*
X138430000Y-108585000D02*
X137795000Y-107950000D01*
X144780000Y-108585000D02*
X138430000Y-108585000D01*
X145415000Y-107950000D02*
X144780000Y-108585000D01*
X145415000Y-106680000D02*
X145415000Y-107950000D01*
X149225000Y-102870000D02*
X145415000Y-106680000D01*
X152320000Y-102315000D02*
X152320000Y-102870000D01*
X166370000Y-102870000D02*
X165100000Y-101600000D01*
X165100000Y-101600000D02*
X153035000Y-101600000D01*
X153035000Y-101600000D02*
X152320000Y-102315000D01*
X168830000Y-102870000D02*
X166370000Y-102870000D01*
X152320000Y-105410000D02*
X147955000Y-105410000D01*
X136525000Y-108585000D02*
X136525000Y-106520000D01*
X137160000Y-109220000D02*
X136525000Y-108585000D01*
X145415000Y-109220000D02*
X137160000Y-109220000D01*
X146050000Y-108585000D02*
X145415000Y-109220000D01*
X146050000Y-107315000D02*
X146050000Y-108585000D01*
X147955000Y-105410000D02*
X146050000Y-107315000D01*
X152320000Y-104855000D02*
X152320000Y-105410000D01*
X166370000Y-105410000D02*
X165100000Y-104140000D01*
X165100000Y-104140000D02*
X153035000Y-104140000D01*
X153035000Y-104140000D02*
X152320000Y-104855000D01*
X168830000Y-105410000D02*
X166370000Y-105410000D01*
X152320000Y-107950000D02*
X147320000Y-107950000D01*
X135255000Y-109220000D02*
X135255000Y-106520000D01*
X135890000Y-109855000D02*
X135255000Y-109220000D01*
X146050000Y-109855000D02*
X135890000Y-109855000D01*
X146685000Y-109220000D02*
X146050000Y-109855000D01*
X146685000Y-108585000D02*
X146685000Y-109220000D01*
X147320000Y-107950000D02*
X146685000Y-108585000D01*
X152320000Y-107395000D02*
X152320000Y-107950000D01*
X166370000Y-107950000D02*
X165100000Y-106680000D01*
X165100000Y-106680000D02*
X153035000Y-106680000D01*
X153035000Y-106680000D02*
X152320000Y-107395000D01*
X168830000Y-107950000D02*
X166370000Y-107950000D01*
X152320000Y-110490000D02*
X134620000Y-110490000D01*
X133985000Y-111125000D02*
X133985000Y-111920000D01*
X134620000Y-110490000D02*
X133985000Y-111125000D01*
X152320000Y-109935000D02*
X152320000Y-110490000D01*
X166370000Y-110490000D02*
X165100000Y-109220000D01*
X165100000Y-109220000D02*
X153035000Y-109220000D01*
X153035000Y-109220000D02*
X152320000Y-109935000D01*
X168830000Y-110490000D02*
X166370000Y-110490000D01*
X142875000Y-115570000D02*
X147955000Y-115570000D01*
X147955000Y-115570000D02*
X150495000Y-113030000D01*
X152320000Y-113030000D02*
X150495000Y-113030000D01*
X135255000Y-113665000D02*
X135255000Y-111920000D01*
X135890000Y-115570000D02*
X135255000Y-116205000D01*
X142875000Y-115570000D02*
X135890000Y-115570000D01*
X152320000Y-112475000D02*
X152320000Y-113030000D01*
X166370000Y-113030000D02*
X165100000Y-111760000D01*
X165100000Y-111760000D02*
X153035000Y-111760000D01*
X153035000Y-111760000D02*
X152320000Y-112475000D01*
X168830000Y-113030000D02*
X166370000Y-113030000D01*
X142875000Y-116840000D02*
X149225000Y-116840000D01*
X149225000Y-116840000D02*
X150495000Y-115570000D01*
X152320000Y-115570000D02*
X150495000Y-115570000D01*
X137160000Y-116840000D02*
X136525000Y-117475000D01*
X142875000Y-116840000D02*
X137160000Y-116840000D01*
X136525000Y-113665000D02*
X136525000Y-111920000D01*
X152320000Y-115015000D02*
X152320000Y-115570000D01*
X166370000Y-115570000D02*
X165100000Y-114300000D01*
X165100000Y-114300000D02*
X153035000Y-114300000D01*
X153035000Y-114300000D02*
X152320000Y-115015000D01*
X168830000Y-115570000D02*
X166370000Y-115570000D01*
X152320000Y-118110000D02*
X137795000Y-118110000D01*
X137795000Y-113665000D02*
X137795000Y-111920000D01*
X152320000Y-117555000D02*
X152320000Y-118110000D01*
X166370000Y-118110000D02*
X165100000Y-116840000D01*
X165100000Y-116840000D02*
X153035000Y-116840000D01*
X153035000Y-116840000D02*
X152320000Y-117555000D01*
X168830000Y-118110000D02*
X166370000Y-118110000D01*
X114380000Y-99060000D02*
X119380000Y-99060000D01*
X119380000Y-93980000D02*
X123190000Y-93980000D01*
X124460000Y-95250000D02*
X140335000Y-95250000D01*
X123190000Y-93980000D02*
X124460000Y-95250000D01*
X140335000Y-104140000D02*
X140335000Y-106520000D01*
X140335000Y-55720000D02*
X140335000Y-53975000D01*
X140335000Y-79375000D02*
X140335000Y-81120000D01*
X119380000Y-96520000D02*
X123190000Y-96520000D01*
X124460000Y-97790000D02*
X139065000Y-97790000D01*
X123190000Y-96520000D02*
X124460000Y-97790000D01*
X139065000Y-62865000D02*
X139065000Y-61120000D01*
X139065000Y-111920000D02*
X139065000Y-113665000D01*
X139065000Y-88265000D02*
X139065000Y-86520000D01*
X140335000Y-61120000D02*
X140335000Y-63500000D01*
X139700000Y-64135000D02*
X133985000Y-64135000D01*
X140335000Y-63500000D02*
X139700000Y-64135000D01*
X140335000Y-86520000D02*
X140335000Y-88900000D01*
X139700000Y-89535000D02*
X129540000Y-89535000D01*
X140335000Y-88900000D02*
X139700000Y-89535000D01*
X140335000Y-111920000D02*
X140335000Y-114300000D01*
X130175000Y-106680000D02*
X127000000Y-106680000D01*
X130810000Y-107315000D02*
X130175000Y-106680000D01*
X130810000Y-113665000D02*
X130810000Y-107315000D01*
X132080000Y-114935000D02*
X130810000Y-113665000D01*
X139700000Y-114935000D02*
X132080000Y-114935000D01*
X140335000Y-114300000D02*
X139700000Y-114935000D01*
X127000000Y-96520000D02*
X142875000Y-96520000D01*
X142875000Y-53975000D02*
X142875000Y-55720000D01*
X142875000Y-106520000D02*
X142875000Y-104140000D01*
X142875000Y-79375000D02*
X142875000Y-81120000D01*
X139700000Y-93980000D02*
X139065000Y-94615000D01*
X129540000Y-94615000D02*
X128905000Y-93980000D01*
X139065000Y-94615000D02*
X129540000Y-94615000D01*
X127000000Y-93980000D02*
X128905000Y-93980000D01*
X139700000Y-93980000D02*
X141605000Y-93980000D01*
X141605000Y-53975000D02*
X141605000Y-55720000D01*
X141605000Y-106520000D02*
X141605000Y-104140000D01*
X141605000Y-79375000D02*
X141605000Y-81120000D01*
M02*
