M48
;DRILL file {kicad (2015-04-03 BZR 5572)-product} date Tuesday, April 07, 2015 'PMt' 09:03:19 PM
;FORMAT={2:4/ absolute / inch / keep zeros}
FMAT,2
INCH,TZ
T1C0.016
T2C0.031
T3C0.032
T4C0.032
T5C0.040
T6C0.045
T7C0.060
T8C0.146
%
G90
G05
M72
T1
X050500Y-020500
X051000Y-035250
X052000Y-044500
X052750Y-025250
X052750Y-042750
X053250Y-024750
X053250Y-025750
X053250Y-034750
X053250Y-035750
X053250Y-044750
X053250Y-045750
X053750Y-024750
X053750Y-026250
X053750Y-034750
X053750Y-036000
X053750Y-044750
X053750Y-046250
X054250Y-024750
X054250Y-026500
X054250Y-034750
X054250Y-036250
X054250Y-044750
X054250Y-046500
X054750Y-024750
X054750Y-034750
X054750Y-038500
X054750Y-044750
X055250Y-021250
X055250Y-031250
X055250Y-037500
X055250Y-041000
X055750Y-021250
X055750Y-031250
X055750Y-037000
X055750Y-041000
X056250Y-021250
X056250Y-031250
X056250Y-038000
X056250Y-041000
X056250Y-044750
X056750Y-024000
X056750Y-028000
X056750Y-034000
X056750Y-036500
X057250Y-024250
X057250Y-027250
X057250Y-034000
X057250Y-045000
X064750Y-019500
X064750Y-020500
X064750Y-021500
X064750Y-022500
X064750Y-023500
X064750Y-024500
X064750Y-025500
X064750Y-026500
X064750Y-029500
X064750Y-030500
X064750Y-031500
X064750Y-032500
X064750Y-033500
X064750Y-034500
X064750Y-035500
X064750Y-036500
X064750Y-039500
X064750Y-040500
X064750Y-041500
X064750Y-042500
X064750Y-043500
X064750Y-044500
X064750Y-045500
X064750Y-046500
T2
X047000Y-028000
X047984Y-028000
T3
X050500Y-028000
X052000Y-028000
T4
X047000Y-037000
X047000Y-038000
X047000Y-039000
X047000Y-040000
X047000Y-041000
X047000Y-042000
X047000Y-043000
X047000Y-044000
X047000Y-045000
X050000Y-037000
X050000Y-038000
X050000Y-039000
X050000Y-040000
X050000Y-041000
X050000Y-042000
X050000Y-043000
X050000Y-044000
X050000Y-045000
X071000Y-019500
X071000Y-020500
X071000Y-022500
X071000Y-023500
X071000Y-025500
X071000Y-026500
X071000Y-029500
X071000Y-030500
X071000Y-032500
X071000Y-033500
X071000Y-035500
X071000Y-036500
X071000Y-039500
X071000Y-040500
X071000Y-042500
X071000Y-043500
X071000Y-045500
X071000Y-046500
X072000Y-019500
X072000Y-022500
X072000Y-025500
X072000Y-029500
X072000Y-032500
X072000Y-035500
X072000Y-039500
X072000Y-042500
X072000Y-045500
X073500Y-020500
X073500Y-021500
X073500Y-023500
X073500Y-024500
X073500Y-026500
X073500Y-027500
X073500Y-030500
X073500Y-031500
X073500Y-033500
X073500Y-034500
X073500Y-036500
X073500Y-037500
X073500Y-040500
X073500Y-041500
X073500Y-043500
X073500Y-044500
X073500Y-046500
X073500Y-047500
X074500Y-020500
X074500Y-023500
X074500Y-026500
X074500Y-030500
X074500Y-033500
X074500Y-036500
X074500Y-040500
X074500Y-043500
X074500Y-046500
X076000Y-021500
X076000Y-022500
X076000Y-024500
X076000Y-025500
X076000Y-031500
X076000Y-032500
X076000Y-034500
X076000Y-035500
X076000Y-041500
X076000Y-042500
X076000Y-044500
X076000Y-045500
X077000Y-021500
X077000Y-024500
X077000Y-031500
X077000Y-034500
X077000Y-041500
X077000Y-044500
T5
X080000Y-019500
X080000Y-020500
X080000Y-021500
X080000Y-022500
X080000Y-023500
X080000Y-024500
X080000Y-025500
X080000Y-026500
X080000Y-029500
X080000Y-030500
X080000Y-031500
X080000Y-032500
X080000Y-033500
X080000Y-034500
X080000Y-035500
X080000Y-036500
X080000Y-039500
X080000Y-040500
X080000Y-041500
X080000Y-042500
X080000Y-043500
X080000Y-044500
X080000Y-045500
X080000Y-046500
X081000Y-019500
X081000Y-020500
X081000Y-021500
X081000Y-022500
X081000Y-023500
X081000Y-024500
X081000Y-025500
X081000Y-026500
X081000Y-029500
X081000Y-030500
X081000Y-031500
X081000Y-032500
X081000Y-033500
X081000Y-034500
X081000Y-035500
X081000Y-036500
X081000Y-039500
X081000Y-040500
X081000Y-041500
X081000Y-042500
X081000Y-043500
X081000Y-044500
X081000Y-045500
X081000Y-046500
T6
X044500Y-028000
X044500Y-029000
X044500Y-030000
T7
X040000Y-026000
X040000Y-028000
X040000Y-032000
X040000Y-034000
X040000Y-036000
T8
X040500Y-020000
X040500Y-046000
T0
M30
